# xmcd
#
# Track frame offsets:
#	150
#	13227
#	27695
#	42140
#	57152
#	68905
#	85077
#	102060
#	119335
#	136997
#	153902
#
# Disc length: 2225 seconds
#
# Revision: 1
# Processed by: cddbd v1.4b41PL1 Copyright (c) Steve Scherf et al.
# Submitted via: audiograbber 1.80
#
DISCID=8c08af0b
DTITLE=Lisa Brokop - My Love
DYEAR=1900
DGENRE=
TTITLE0=My Love
TTITLE1=Time to Come Back Home
TTITLE2=Country Girl
TTITLE3=I'm Leaving You For Me
TTITLE4=Is There Love After You
TTITLE5=All Heaven Broke Loose
TTITLE6=Daddy Sing to Me
TTITLE7=Old Mister Moon
TTITLE8=Dying to Forget
TTITLE9=Hold On
TTITLE10=We Built This Love
EXTD=
EXTT0=
EXTT1=
EXTT2=
EXTT3=
EXTT4=
EXTT5=
EXTT6=
EXTT7=
EXTT8=
EXTT9=
EXTT10=
PLAYORDER=
